<svg width="24" height="24" viewBox="0 0 24 24" fill="none" xmlns="http://www.w3.org/2000/svg">
  <path d="M9.5 5.43V8.5H10.5V5.43C11.31 5.2 11.93 4.47 11.93 3.6C11.93 2.58 11.1 1.75 10.08 1.75C9.06 1.75 8.23 2.58 8.23 3.6C8.23 4.47 8.85 5.2 9.5 5.43Z" fill="#FFD700"/>
  <path d="M14.5 13.43V16.5H15.5V13.43C16.31 13.2 16.93 12.47 16.93 11.6C16.93 10.58 16.1 9.75 15.08 9.75C14.06 9.75 13.23 10.58 13.23 11.6C13.23 12.47 13.85 13.2 14.5 13.43Z" fill="#FFD700"/>
  <path d="M17.48 15.82C17.13 15.82 16.82 15.95 16.58 16.17L14.93 15.32C14.97 15.17 15 15.01 15 14.85C15 13.9 14.43 13.08 13.61 12.74L13.5 9.56C14.36 9.2 15 8.38 15 7.42C15 6.15 13.96 5.11 12.69 5.11C11.41 5.11 10.38 6.15 10.38 7.42C10.38 8.38 11.01 9.2 11.88 9.56L11.77 12.74C10.95 13.08 10.38 13.9 10.38 14.85C10.38 15.01 10.4 15.17 10.45 15.32L8.8 16.16C8.57 15.95 8.26 15.82 7.92 15.82C7.24 15.82 6.69 16.37 6.69 17.05C6.69 17.73 7.24 18.28 7.92 18.28C8.6 18.28 9.15 17.73 9.15 17.05C9.15 17 9.15 16.95 9.14 16.9L10.8 16.06C11.13 16.49 11.66 16.76 12.26 16.76C12.85 16.76 13.38 16.49 13.71 16.06L15.37 16.9C15.36 16.95 15.36 17 15.36 17.05C15.36 17.73 15.91 18.28 16.59 18.28C17.27 18.28 17.82 17.73 17.82 17.05C17.82 16.37 17.27 15.82 17.48 15.82Z" fill="#FFD700"/>
  <path d="M19 6H21V4H19V2H17V4H15V6H17V8H19V6Z" fill="#FFD700"/>
</svg> 