<svg width="24" height="24" viewBox="0 0 24 24" fill="none" xmlns="http://www.w3.org/2000/svg">
  <path d="M19 9L20.25 6.25L23 5L20.25 3.75L19 1L17.75 3.75L15 5L17.75 6.25L19 9Z" fill="#0096FF"/>
  <path d="M9 4L7.75 1.76L5 1L7.75 0.24L9 -2L10.25 0.24L13 1L10.25 1.76L9 4Z" fill="#0096FF"/>
  <path d="M12 13L10.74 15.25L8 16L10.74 16.75L12 19L13.25 16.75L16 16L13.25 15.25L12 13Z" fill="#0096FF"/>
  <path d="M11 22L18 18L11 14V22Z" fill="#0096FF"/>
  <path d="M4 14L11 18L4 22V14Z" fill="#0096FF"/>
</svg> 