<svg width="24" height="24" viewBox="0 0 24 24" fill="none" xmlns="http://www.w3.org/2000/svg">
  <path d="M12 2C6.48 2 2 6.48 2 12C2 17.52 6.48 22 12 22C17.52 22 22 17.52 22 12C22 6.48 17.52 2 12 2ZM12 20C7.59 20 4 16.41 4 12C4 7.59 7.59 4 12 4C16.41 4 20 7.59 20 12C20 16.41 16.41 20 12 20Z" fill="#C300FF"/>
  <path d="M8 10C8.55 10 9 9.55 9 9C9 8.45 8.55 8 8 8C7.45 8 7 8.45 7 9C7 9.55 7.45 10 8 10Z" fill="#C300FF"/>
  <path d="M16 10C16.55 10 17 9.55 17 9C17 8.45 16.55 8 16 8C15.45 8 15 8.45 15 9C15 9.55 15.45 10 16 10Z" fill="#C300FF"/>
  <path d="M16 16.5C15.33 15.83 14.2 15.5 12 15.5C9.8 15.5 8.67 15.83 8 16.5H7.5C8.33 15.5 10 14.5 12 14.5C14 14.5 15.67 15.5 16.5 16.5H16Z" fill="#C300FF"/>
</svg> 