<svg width="24" height="24" viewBox="0 0 24 24" fill="none" xmlns="http://www.w3.org/2000/svg">
  <path d="M9 13H15V17H9V13Z" fill="#0096FF"/>
  <path d="M12 4C7.59 4 4 7.59 4 12C4 16.41 7.59 20 12 20C16.41 20 20 16.41 20 12C20 7.59 16.41 4 12 4ZM12 18C8.69 18 6 15.31 6 12C6 8.69 8.69 6 12 6C15.31 6 18 8.69 18 12C18 15.31 15.31 18 12 18Z" fill="#0096FF"/>
  <path d="M12 9C11.44 9 11 9.45 11 10C11 10.55 11.44 11 12 11C12.55 11 13 10.55 13 10C13 9.45 12.55 9 12 9Z" fill="#0096FF"/>
  <path d="M15 17L18 20L17 21L14 18L15 17Z" fill="#0096FF"/>
</svg> 